<svg width="50" height="50" viewBox="0 0 50 50" fill="none" xmlns="http://www.w3.org/2000/svg">
<path d="M35.72 14H8.28C8.126 14 8 14.1241 8 14.2758V16.4818C8 16.6335 8.126 16.7576 8.28 16.7576H35.72C35.874 16.7576 36 16.6335 36 16.4818V14.2758C36 14.1241 35.874 14 35.72 14ZM35.72 35.5091H8.28C8.126 35.5091 8 35.6332 8 35.7848V37.9909C8 38.1426 8.126 38.2667 8.28 38.2667H35.72C35.874 38.2667 36 38.1426 36 37.9909V35.7848C36 35.6332 35.874 35.5091 35.72 35.5091ZM35.72 24.7545H8.28C8.126 24.7545 8 24.8786 8 25.0303V27.2364C8 27.388 8.126 27.5121 8.28 27.5121H35.72C35.874 27.5121 36 27.388 36 27.2364V25.0303C36 24.8786 35.874 24.7545 35.72 24.7545Z" fill="#333333"/>
</svg>
