<svg width="74" height="74" viewBox="0 0 74 74" fill="none" xmlns="http://www.w3.org/2000/svg">
<path d="M37 9.25C54.8802 9.25 69.375 20.5473 69.375 34.4871C69.375 48.4238 54.8802 59.7211 37 59.7211C35.2196 59.722 33.441 59.6087 31.6751 59.3819L18.0837 68.2712C16.539 69.0882 15.9932 68.9988 16.6284 66.9977L19.3787 55.6572C10.4987 51.1556 4.625 43.3548 4.625 34.4871C4.625 20.5504 19.1198 9.25 37 9.25ZM55.2132 34.1017L59.7458 29.711C60.0073 29.4394 60.1532 29.0769 60.1527 28.6998C60.1523 28.3227 60.0055 27.9606 59.7433 27.6896C59.4811 27.4186 59.124 27.26 58.7471 27.2471C58.3703 27.2342 58.0032 27.3681 57.7231 27.6205L51.7784 33.374V28.6195C51.7784 28.2335 51.6251 27.8634 51.3522 27.5904C51.0792 27.3175 50.7091 27.1642 50.3231 27.1642C49.9371 27.1642 49.5669 27.3175 49.294 27.5904C49.0211 27.8634 48.8677 28.2335 48.8677 28.6195V36.5036C48.8132 36.7285 48.8132 36.9632 48.8677 37.1881V41.625C48.8677 42.011 49.0211 42.3811 49.294 42.6541C49.5669 42.927 49.9371 43.0803 50.3231 43.0803C50.7091 43.0803 51.0792 42.927 51.3522 42.6541C51.6251 42.3811 51.7784 42.011 51.7784 41.625V37.4224L53.095 36.149L57.498 42.4174C57.6079 42.5739 57.7476 42.7072 57.9091 42.8097C58.0705 42.9123 58.2506 42.982 58.439 43.0149C58.6274 43.0478 58.8204 43.0433 59.0071 43.0016C59.1937 42.96 59.3703 42.8819 59.5268 42.772C59.6833 42.6621 59.8166 42.5224 59.9192 42.3609C60.0217 42.1995 60.0914 42.0194 60.1243 41.831C60.1572 41.6426 60.1527 41.4496 60.1111 41.2629C60.0694 41.0763 59.9913 40.8997 59.8814 40.7432L55.2132 34.0986V34.1017ZM46.0928 40.034H41.5911V28.6657C41.5739 28.2918 41.4132 27.9388 41.1424 27.6802C40.8717 27.4217 40.5117 27.2774 40.1373 27.2774C39.7629 27.2774 39.4029 27.4217 39.1322 27.6802C38.8614 27.9388 38.7007 28.2918 38.6835 28.6657V41.4893C38.6835 42.291 39.331 42.9447 40.1357 42.9447H46.0928C46.4787 42.9447 46.8489 42.7913 47.1218 42.5184C47.3948 42.2455 47.5481 41.8753 47.5481 41.4893C47.5481 41.1034 47.3948 40.7332 47.1218 40.4603C46.8489 40.1873 46.4787 40.034 46.0928 40.034ZM28.0337 36.667L30.1797 31.4038L32.1468 36.667H28.0337ZM35.8129 38.1717L35.8191 38.1223C35.8184 37.7557 35.6784 37.403 35.4275 37.1357L32.2023 28.5023C32.0671 28.0909 31.8096 27.7306 31.4642 27.4694C31.1187 27.2082 30.7018 27.0587 30.2691 27.0408C29.8332 27.0389 29.4071 27.1698 29.0474 27.416C28.6878 27.6622 28.4116 28.0121 28.2557 28.4191L23.1342 40.9837C23.062 41.1606 23.0253 41.3501 23.0262 41.5412C23.0271 41.7323 23.0657 41.9214 23.1397 42.0976C23.2137 42.2739 23.3217 42.4338 23.4576 42.5683C23.5934 42.7028 23.7543 42.8092 23.9313 42.8815C24.1082 42.9537 24.2977 42.9904 24.4888 42.9895C24.68 42.9886 24.869 42.95 25.0453 42.876C25.2215 42.802 25.3814 42.694 25.5159 42.5582C25.6504 42.4223 25.7568 42.2614 25.8291 42.0844L26.8466 39.5777H33.2291L34.151 42.0443C34.2137 42.2287 34.3127 42.3986 34.4423 42.544C34.5718 42.6894 34.7292 42.8074 34.9052 42.8908C35.0811 42.9743 35.272 43.0216 35.4666 43.0299C35.6612 43.0383 35.8554 43.0075 36.0379 42.9394C36.2203 42.8712 36.3872 42.7672 36.5287 42.6334C36.6702 42.4996 36.7835 42.3388 36.8617 42.1605C36.9399 41.9821 36.9815 41.7899 36.9841 41.5952C36.9867 41.4004 36.9501 41.2072 36.8767 41.0268L35.8129 38.1717ZM25.5701 28.6812C25.5701 28.2957 25.4172 27.926 25.1449 27.6532C24.8727 27.3803 24.5033 27.2266 24.1178 27.2258H14.1124C13.7264 27.2258 13.3563 27.3792 13.0833 27.6521C12.8104 27.925 12.6571 28.2952 12.6571 28.6812C12.6571 29.0671 12.8104 29.4373 13.0833 29.7102C13.3563 29.9832 13.7264 30.1365 14.1124 30.1365H17.6891V41.6558C17.6891 42.0418 17.8424 42.412 18.1153 42.6849C18.3883 42.9578 18.7584 43.1112 19.1444 43.1112C19.5304 43.1112 19.9006 42.9578 20.1735 42.6849C20.4464 42.412 20.5998 42.0418 20.5998 41.6558V30.1365H24.1147C24.5007 30.1365 24.8709 29.9832 25.1438 29.7102C25.4168 29.4373 25.5701 29.0671 25.5701 28.6812Z" fill="#391B1B"/>
</svg>
