<svg width="32" height="32" viewBox="0 0 32 32" fill="none" xmlns="http://www.w3.org/2000/svg">
<path d="M15.9999 2.66675C12.3239 2.66675 9.33325 5.65741 9.33325 9.33341V13.3334H7.99992C7.29267 13.3334 6.6144 13.6144 6.1143 14.1145C5.6142 14.6146 5.33325 15.2928 5.33325 16.0001V26.6667C5.33325 27.374 5.6142 28.0523 6.1143 28.5524C6.6144 29.0525 7.29267 29.3334 7.99992 29.3334H23.9999C24.7072 29.3334 25.3854 29.0525 25.8855 28.5524C26.3856 28.0523 26.6666 27.374 26.6666 26.6667V16.0001C26.6666 15.2928 26.3856 14.6146 25.8855 14.1145C25.3854 13.6144 24.7072 13.3334 23.9999 13.3334H22.6666V9.33341C22.6666 5.65741 19.6759 2.66675 15.9999 2.66675ZM11.9999 9.33341C11.9999 7.12808 13.7946 5.33341 15.9999 5.33341C18.2053 5.33341 19.9999 7.12808 19.9999 9.33341V13.3334H11.9999V9.33341ZM17.3333 23.6307V26.6667H14.6666V23.6307C14.2004 23.3638 13.8261 22.9619 13.593 22.4779C13.3599 21.9939 13.279 21.4507 13.3608 20.9198C13.4427 20.3889 13.6835 19.8953 14.0516 19.504C14.4197 19.1127 14.8977 18.8422 15.4226 18.7281C15.8125 18.6419 16.2167 18.6443 16.6056 18.7351C16.9944 18.826 17.3579 19.0029 17.6692 19.253C17.9806 19.503 18.2318 19.8197 18.4044 20.1798C18.577 20.5399 18.6666 20.9341 18.6666 21.3334C18.6658 21.7997 18.5422 22.2576 18.3081 22.6609C18.074 23.0643 17.7378 23.3988 17.3333 23.6307V23.6307Z" fill="#70A103"/>
</svg>
