<svg width="28" height="25" viewBox="0 0 28 25" fill="none" xmlns="http://www.w3.org/2000/svg">
<path d="M27.72 0H0.28C0.126 0 0 0.124091 0 0.275758V2.48182C0 2.63348 0.126 2.75758 0.28 2.75758H27.72C27.874 2.75758 28 2.63348 28 2.48182V0.275758C28 0.124091 27.874 0 27.72 0ZM27.72 21.5091H0.28C0.126 21.5091 0 21.6332 0 21.7848V23.9909C0 24.1426 0.126 24.2667 0.28 24.2667H27.72C27.874 24.2667 28 24.1426 28 23.9909V21.7848C28 21.6332 27.874 21.5091 27.72 21.5091ZM27.72 10.7545H0.28C0.126 10.7545 0 10.8786 0 11.0303V13.2364C0 13.388 0.126 13.5121 0.28 13.5121H27.72C27.874 13.5121 28 13.388 28 13.2364V11.0303C28 10.8786 27.874 10.7545 27.72 10.7545Z" fill="#333333"/>
</svg>
