<svg width="23" height="25" viewBox="0 0 23 25" fill="none" xmlns="http://www.w3.org/2000/svg">
<path d="M21.1875 6.44531H17.0703V5.96094C17.0703 2.88516 14.5758 0.390625 11.5 0.390625C8.42422 0.390625 5.92969 2.88516 5.92969 5.96094V6.44531H1.8125C1.27666 6.44531 0.84375 6.87822 0.84375 7.41406V23.6406C0.84375 24.1765 1.27666 24.6094 1.8125 24.6094H21.1875C21.7233 24.6094 22.1562 24.1765 22.1562 23.6406V7.41406C22.1562 6.87822 21.7233 6.44531 21.1875 6.44531ZM8.10938 5.96094C8.10938 4.08701 9.62607 2.57031 11.5 2.57031C13.3739 2.57031 14.8906 4.08701 14.8906 5.96094V6.44531H8.10938V5.96094ZM19.9766 22.4297H3.02344V8.625H5.92969V11.2891C5.92969 11.4223 6.03867 11.5312 6.17188 11.5312H7.86719C8.00039 11.5312 8.10938 11.4223 8.10938 11.2891V8.625H14.8906V11.2891C14.8906 11.4223 14.9996 11.5312 15.1328 11.5312H16.8281C16.9613 11.5312 17.0703 11.4223 17.0703 11.2891V8.625H19.9766V22.4297Z" fill="#333333"/>
</svg>
