<svg width="34" height="30" viewBox="0 0 34 30" fill="none" xmlns="http://www.w3.org/2000/svg">
<g clip-path="url(#clip0_268:1430)">
<path d="M30.0035 24.7826H3.91652C3.59044 24.7826 3.29152 25.0441 3.01978 25.5672C2.74804 26.0903 2.61217 26.6983 2.61217 27.3913C2.61217 28.0842 2.74804 28.6922 3.01978 29.2153C3.29152 29.7384 3.59044 30 3.91652 30H30.0035C30.3296 30 30.6285 29.7384 30.9002 29.2153C31.172 28.6922 31.3078 28.0842 31.3078 27.3913C31.3078 26.6983 31.172 26.0903 30.9002 25.5672C30.6285 25.0441 30.3296 24.7826 30.0035 24.7826ZM2.61217 2.60867C1.89207 2.60867 1.27726 2.86342 0.767745 3.37294C0.258234 3.88245 0.003479 4.49726 0.003479 5.21736C0.003479 5.93747 0.258234 6.55228 0.767745 7.06179C1.27726 7.57131 1.89207 7.82606 2.61217 7.82606L4.24261 22.1535H29.6774L31.3078 7.82606C32.0279 7.82606 32.6427 7.57131 33.1523 7.06179C33.6618 6.55228 33.9165 5.93747 33.9165 5.21736C33.9165 4.49726 33.6618 3.88245 33.1523 3.37294C32.6427 2.86342 32.0279 2.60867 31.3078 2.60867C30.5877 2.60867 29.9729 2.86342 29.4634 3.37294C28.9539 3.88245 28.6991 4.49726 28.6991 5.21736C28.6991 5.97823 28.9777 6.61682 29.5347 7.13313C27.4559 9.61954 26.0497 11.2262 25.316 11.9531C24.5823 12.68 23.9709 13.0435 23.4817 13.0435C23.0198 13.0435 22.4559 12.5917 21.7902 11.6882C21.1244 10.7846 19.9695 8.9334 18.3255 6.13448C18.7059 5.90351 19.0082 5.59101 19.2324 5.19698C19.4566 4.80296 19.5687 4.37497 19.5687 3.91302C19.5687 3.19291 19.3139 2.5781 18.8044 2.06859C18.2949 1.55908 17.6801 1.30432 16.96 1.30432C16.2399 1.30432 15.6251 1.55908 15.1156 2.06859C14.6061 2.5781 14.3513 3.19291 14.3513 3.91302C14.3513 4.37497 14.4634 4.80296 14.6876 5.19698C14.9118 5.59101 15.2141 5.90351 15.5945 6.13448C13.9505 8.9334 12.7956 10.7846 12.1298 11.6882C11.4641 12.5917 10.9002 13.0435 10.4383 13.0435C9.94913 13.0435 9.33772 12.68 8.60402 11.9531C7.87033 11.2262 6.46408 9.61954 4.38527 7.13313C4.94234 6.61682 5.22087 5.97823 5.22087 5.21736C5.22087 4.49726 4.96612 3.88245 4.4566 3.37294C3.94709 2.86342 3.33228 2.60867 2.61217 2.60867Z" fill="#70A103"/>
</g>
<defs>
<clipPath id="clip0_268:1430">
<rect width="33.92" height="30" fill="white"/>
</clipPath>
</defs>
</svg>
