<?xml version="1.0" ?><svg viewBox="0 0 512 512" xmlns="http://www.w3.org/2000/svg"><title/><g id="Milkshake"><path d="M298.4194,291.4031a8.5895,8.5895,0,1,0,8.5894,8.5895A8.59,8.59,0,0,0,298.4194,291.4031Z"/><circle cx="244.6052" cy="338.989" r="8.5896"/><path d="M271.3252,374.4178a8.59,8.59,0,1,0,8.5894,8.5895A8.59,8.59,0,0,0,271.3252,374.4178Z"/><path d="M413.68,175.02c0-9.02-6.97-17.47-19.14-24.75-.25-.15-.5-.31-.73-.47-7.19,8.09-18.14,15.26-32.46,21.08-24.23,9.85-56.2,15.28-90.02,15.28a301.663,301.663,0,0,1-30.71-1.54,5.4987,5.4987,0,0,1,.54-10.97,5.44,5.44,0,0,1,.57.03,291.2132,291.2132,0,0,0,29.6,1.48c58.11,0,106.68-16.6,118.62-38.77.11-.28.24-.56.38-.84a22.043,22.043,0,0,0,2.44-9.91c0-11.53-9.71-22.14-26-30.54a40.6233,40.6233,0,0,1-4.32,4.83,62.596,62.596,0,0,1-14.33,9.93c-1.25.65-4.08,1.89-6.94,3.1a5.43,5.43,0,1,1-4.21-10.01c12.42-5.27,20.98-12.01,23.91-19.52,0-.01.01-.01.01-.02a9.6426,9.6426,0,0,1,.31-1.26,15.4615,15.4615,0,0,0,.78-4.8c0-10.58-11.14-20.1-28.94-26.78-20.73-7.91-40.93-27.54-52.31-40.01a12.7332,12.7332,0,0,0-18.82,0c-2.9324,3.2161-6.4558,6.91-10.42,10.7543a35.8827,35.8827,0,0,0-8.8378-6.1071,35.49,35.49,0,0,0-27.731-1.4614,41.1154,41.1154,0,0,0-19.3823-7.2987,5.5,5.5,0,1,0-1.3614,10.9151,33.0982,33.0982,0,0,1,9.8,2.6919,35.6572,35.6572,0,0,0-10.8557,38.8C185.2139,64.2811,180.67,70.6007,180.67,77.35a15.4586,15.4586,0,0,0,.78,4.8,9.6431,9.6431,0,0,1,.31,1.26c0,.01.01.01.01.02,6.79,17.49,44.3,30.87,89.56,30.87a215.299,215.299,0,0,0,25.53-1.48,5.5056,5.5056,0,0,1,1.25,10.94,228.4726,228.4726,0,0,1-26.78,1.54c-25.6,0-49.82-4.08-68.22-11.51-9.62-3.88-17.33-8.54-22.9-13.86a39.9248,39.9248,0,0,1-4.33-4.83c-16.29,8.4-26,19.01-26,30.54a21.9225,21.9225,0,0,0,2.45,9.91,7.6763,7.6763,0,0,1,.37.84c.01.01.01.02.02.03,6.14,11.36,21.89,21.26,43.61,28.19a5.5045,5.5045,0,1,1-3.34,10.49q-6.09-1.95-11.68-4.22c-14.34-5.82-25.29-13-32.47-21.09-.23.17-.48.33-.73.48-12.17,7.28-19.14,15.73-19.14,24.75,0,8.85,6.7,17.15,18.45,24.33l.06.03c1.4.6875,2.8257,1.3511,4.2612,2.0026A129.1725,129.1725,0,0,1,167.79,220.54c8.85,13.13,16.56,29.23,23.25,46.72,17.64,46.09,28.17,101.8,33.68,138.07a44.9263,44.9263,0,0,0,30.96,36.1l.09.03a10.8234,10.8234,0,0,1,7.56,10.26v4.66a10.7575,10.7575,0,0,1-9.78,10.7c-25.4,2.34-43.91,9.56-43.91,18.11,0,10.44,27.62,18.91,61.69,18.91,34.06,0,61.68-8.47,61.68-18.91,0-8.55-18.51-15.77-43.91-18.11a10.7488,10.7488,0,0,1-9.77-10.7v-4.66a10.8141,10.8141,0,0,1,7.64-10.29,44.9263,44.9263,0,0,0,30.96-36.1c1.38-9.06,3.07-19.33,5.1-30.36,9.21-49.9,25.48-115.34,51.84-154.44a.01.01,0,0,1,.01-.01,106.137,106.137,0,0,1,15.1929-18.258C404.9841,194.4544,413.68,185.0927,413.68,175.02ZM247.5005,57.3479a22.7815,22.7815,0,1,1-33.2451-28.8306,30.6411,30.6411,0,0,1,5.4258,15.2477,5.5,5.5,0,0,0,5.4941,5.32c.0537,0,.1074,0,.1611-.0024a5.5,5.5,0,0,0,5.34-5.6563A40.0834,40.0834,0,0,0,224.937,24.7a22.7873,22.7873,0,0,1,22.5635,32.648ZM308.19,372.74c-2.05,11.14-3.73,21.41-5.09,30.34a30.1291,30.1291,0,0,1-20.62,24.04l-.25.08-.25.08a28.5156,28.5156,0,0,1-9.45,1.38,53.3441,53.3441,0,0,1-12.51-1.59,30.1153,30.1153,0,0,1-20.47-24c-4.36-28.66-12.12-71.27-24.38-111.49q-3.09-10.125-6.36-19.4c-.6695-1.9-1.3477-3.7615-2.0289-5.6083l3.9307,1.5264c.8779.398,7.0606,3.334,15.8193,10.8233,12.1426,10.3828,23.3624,24.2681,33.3487,41.269,17.2226,29.32,26.4453,41.8682,48.6533,47.9707.1672.046.3345.07.5017.1023q-.4266,2.2588-.8349,4.4766Zm45.54-146.17h-.01q-14.4152,26.28-26.24,65.01c-6.5379,21.4575-11.7925,43.5847-15.937,63.9209-16.6026-4.6766-23.6336-13.2606-40.4541-41.8945C260.37,295.3579,248.2217,280.3643,234.98,269.041c-10.3272-8.83-17.7832-12.2988-19.1729-12.9043q-.12-.0526-.2431-.1006l-15.3233-5.951c-3.6318-8.5181-7.4033-16.3764-11.32-23.5151q-3.9449-7.2-8.1-13.46c-.0013,0-.1736-.4579-.4632-1.2308A338.3009,338.3009,0,0,0,220.37,221.15c.32.05.48.07.48.07a389.8957,389.8957,0,0,0,50.48,3.19q6.96,0,13.75-.23a6.3736,6.3736,0,0,1,6.59,6.37v32.24a6.6807,6.6807,0,0,0,6.3,6.77,6.5013,6.5013,0,0,0,6.7-6.5v-34.2a6.385,6.385,0,0,1,5.74-6.34.5287.5287,0,0,0,.13-.01,6.3733,6.3733,0,0,1,7.01,6.34v13a6.6716,6.6716,0,0,0,6.3,6.76,6.493,6.493,0,0,0,6.7-6.49V225.34a6.3823,6.3823,0,0,1,5.27-6.28,258.11,258.11,0,0,0,25.99-5.9186Q357.6654,219.3684,353.73,226.57Z"/></g></svg>