<svg xmlns="http://www.w3.org/2000/svg" viewBox="0 0 64 80" x="0px" y="0px"><title>smoothie-drink-blueberry-yogurt-beverage</title><path d="M39.382,58H24.618l-.276.553A1,1,0,0,0,25.236,60H38.764a1,1,0,0,0,.894-1.447Z"/><path d="M29.379,27.926A1.014,1.014,0,0,1,29,28a1,1,0,0,1-.926-.622L24.647,19H21.24a57.085,57.085,0,0,0,.276,14.933L24.86,56H39.14l3.344-22.067A57.085,57.085,0,0,0,42.76,19H41a1,1,0,0,0-1,1v2a3,3,0,0,1-6,0V20a1,1,0,0,0-1-1H26.808l3.118,7.622A1,1,0,0,1,29.379,27.926Z"/><path d="M20,16a1,1,0,0,0,1,1h2.828l-2.316-5.661A7.942,7.942,0,0,0,20,16Z"/><path d="M37,23a1,1,0,0,0,1-1V20a3,3,0,0,1,3-3h2a1,1,0,0,0,1-1A12.016,12.016,0,0,0,32.893,4.033,5,5,0,0,1,28.007,8a7.965,7.965,0,0,0-4.984,1.749L25.99,17H33a3,3,0,0,1,3,3v2A1,1,0,0,0,37,23Z"/><path d="M23.023,9.749l-2.1-5.127a1,1,0,0,0-.73-.6l-10-2A1,1,0,1,0,9.8,3.98l9.473,1.9,2.235,5.464A8.051,8.051,0,0,1,23.023,9.749Z"/><polygon points="24.647 19 26.808 19 25.99 17 23.828 17 24.647 19"/><text x="0" y="79" fill="#000000" font-size="5px" font-weight="bold" font-family="'Helvetica Neue', Helvetica, Arial-Unicode, Arial, Sans-serif">Created by mynamepong</text><text x="0" y="84" fill="#000000" font-size="5px" font-weight="bold" font-family="'Helvetica Neue', Helvetica, Arial-Unicode, Arial, Sans-serif">from the Noun Project</text></svg>