<svg xmlns="http://www.w3.org/2000/svg" xmlns:xlink="http://www.w3.org/1999/xlink" version="1.1" x="0px" y="0px" viewBox="0 0 90 112.5" enable-background="new 0 0 90 90" xml:space="preserve"><polygon points="47,50.6 50.8,50.6 50.8,45.2 48.9,43.8 47,45.2 "/><path d="M18.8,56.8c0,1,0.8,1.8,1.8,1.8h45.8c1,0,1.8-0.8,1.8-1.8S67.4,55,66.4,55H20.6C19.6,55,18.8,55.8,18.8,56.8z"/><path d="M45,52.6l0-8.4l2.9-2.1V31.4H21.8v3.7c0,7.5,4,14.3,10.6,17.9H52c0.2-0.1,0.4-0.2,0.6-0.4H45z"/><path d="M64.6,35.2h4l-0.3,1.2c-0.3,1.2-0.8,2.3-1.4,3.1c-0.5,0.7-1.6,1.9-3.2,2.1c-0.3,0.9-0.6,1.8-1,2.7H63c2.2,0,4.4-1.2,5.9-3.2  c1.4-2,2.2-4.5,2.2-7.2v-1.3h-6.6v2.5C64.6,35.1,64.6,35.1,64.6,35.2z"/><path d="M61.9,40.4c0.4-1.4,0.6-2.8,0.7-4.3c0-0.3,0-0.7,0-1v-3.7H49.9v10.7l2.9,2.1l0,8.3c3.1-1.9,5.7-4.6,7.4-7.8  C61,43.3,61.5,41.9,61.9,40.4z"/><text x="0" y="105" fill="#000000" font-size="5px" font-weight="bold" font-family="'Helvetica Neue', Helvetica, Arial-Unicode, Arial, Sans-serif">Created by ignation</text><text x="0" y="110" fill="#000000" font-size="5px" font-weight="bold" font-family="'Helvetica Neue', Helvetica, Arial-Unicode, Arial, Sans-serif">from the Noun Project</text></svg>