<svg xmlns="http://www.w3.org/2000/svg" xmlns:xlink="http://www.w3.org/1999/xlink" viewBox="0 0 48 60" version="1.1" x="0px" y="0px"><title>ic-latte</title><desc>Created with Sketch.</desc><g stroke="none" stroke-width="1" fill="none" fill-rule="evenodd"><path d="M14.0000065,8 C14.0029559,6.99410366 15.0019636,5.00301236 16.3288927,4.62695085 C17.6577853,4.25033284 17.9047275,4.59998069 19.6900895,4.25167215 C21.6136953,3.87639346 21,2 23.3821139,2 C25.1787345,2 27,4 27.9043203,4.25167215 C28.8086407,4.50334431 30.4559073,4.69785057 31.8471512,5.37750823 C33.201173,6.03898198 33.9587966,7.89694505 33.998367,8 L34.1807699,8 C35.2811195,8 36.0943228,8.88337672 35.9956414,9.98954234 L33.1379257,42.0230306 C32.9419826,44.2194501 31.0021174,46 28.7750913,46 L19.2248766,46 C17.0112928,46 15.0578693,44.2181492 14.8620422,42.0230306 L12.0043264,9.98954234 C11.9063027,8.89074844 12.7222101,8 13.819198,8 L14.0000065,8 Z M13.9881652,11.5942875 L16.4149222,40.8013625 C16.5620062,42.5715825 18.1108776,44 19.8751027,44 L28.1248705,44 C29.8890196,44 31.4382713,42.5679212 31.5850511,40.8013625 L34.0118081,11.5942875 C34.0852702,10.7101383 33.4315068,10 32.5522637,10 L15.4477095,10 C14.5777802,10 13.9150061,10.7137868 13.9881652,11.5942875 Z M16.0028843,21.2041967 C15.9375352,20.5391372 16.424589,20 17.0780531,20 L30.9219255,20 C31.5810739,20 32.0628818,20.5346754 31.9970943,21.2041967 L30.0908894,40.6036859 C29.9608466,41.9271336 28.7746864,43 27.4572969,43 L20.5426817,43 C19.2182315,43 18.0385795,41.9215114 17.9090892,40.6036859 L16.0028843,21.2041967 Z" fill="#000000"/></g><text x="0" y="63" fill="#000000" font-size="5px" font-weight="bold" font-family="'Helvetica Neue', Helvetica, Arial-Unicode, Arial, Sans-serif">Created by Max Palyvoda</text><text x="0" y="68" fill="#000000" font-size="5px" font-weight="bold" font-family="'Helvetica Neue', Helvetica, Arial-Unicode, Arial, Sans-serif">from the Noun Project</text></svg>