<svg xmlns="http://www.w3.org/2000/svg" xmlns:xlink="http://www.w3.org/1999/xlink" version="1.1" x="0px" y="0px" viewBox="0 0 64 80" style="enable-background:new 0 0 64 64;" xml:space="preserve"><g><path d="M30,20c0-2.757-2.243-5-5-5c-0.187,0-0.365,0.035-0.547,0.055C23.504,12.236,23,9.265,23,6.292V6h-2v0.292   c0,1.814,0.179,3.627,0.514,5.411C20.772,11.267,19.92,11,19,11h-5v1c0,2.757,2.243,5,5,5h2.026C20.391,17.838,20,18.87,20,20   c0,2.757,2.243,5,5,5S30,22.757,30,20z"/><polygon points="39.385,6.135 37.005,7.563 36.583,9.884 38.94,8.47  "/><polygon points="36.546,21.039 34.311,22.38 34.198,23 36.172,23  "/><polygon points="37.492,16.07 35.209,17.44 34.787,19.762 37.047,18.406  "/><polygon points="37.793,3.229 37.481,4.945 39.592,3.679  "/><polygon points="38.439,11.103 36.107,12.502 35.685,14.822 37.994,13.437  "/><path d="M34.65,30.788c1.485,0.427,3.052,0.873,4.636,1.255L39.908,25H25h-6.89l0.648,6.153C20.213,30.2,22.699,29,26,29   C28.431,29,31.452,29.868,34.65,30.788z"/><path d="M40.144,45.088l-1.992-0.176l0.958-10.856c-1.719-0.405-3.411-0.886-5.01-1.346C31.039,31.831,28.149,31,26,31   c-3.658,0-6.174,1.776-7,2.452l2.313,21.98C21.932,56.403,22.995,57,24.162,57h12.922l0.802-9.088l1.992,0.176L39.092,57h0.746   c1.167,0,2.23-0.597,2.849-1.567l2.155-20.475c-1.241-0.07-2.502-0.242-3.762-0.481L40.144,45.088z"/><path d="M41.916,25l-0.659,7.473c1.283,0.251,2.557,0.427,3.795,0.491L45.89,25H41.916z"/><path d="M24.162,59c-0.908,0-1.773-0.236-2.541-0.647l0.09,0.857c0.108,1.021,0.964,1.79,1.99,1.79h16.598   c1.026,0,1.882-0.77,1.99-1.791l0.09-0.856C41.611,58.764,40.746,59,39.838,59H24.162z"/></g><text x="0" y="79" fill="#000000" font-size="5px" font-weight="bold" font-family="'Helvetica Neue', Helvetica, Arial-Unicode, Arial, Sans-serif">Created by Eucalyp</text><text x="0" y="84" fill="#000000" font-size="5px" font-weight="bold" font-family="'Helvetica Neue', Helvetica, Arial-Unicode, Arial, Sans-serif">from the Noun Project</text></svg>