<svg width="100" height="100" viewBox="0 0 100 100" fill="none" xmlns="http://www.w3.org/2000/svg">
<path d="M56.25 12.5C44.7938 12.5 36.1063 15.1937 30.2719 20.7031C24.4438 26.2125 21.875 34.2437 21.875 43.75V46.5812C20.0875 48.2812 18.75 50.4687 18.75 53.125C18.75 57.0625 21.5312 59.8562 25 61.2312C26.1563 64.8781 27.4156 68.7094 28.8125 71.9719C30.3281 75.5406 31.7 78.3719 33.5938 80.3781C35.696 82.6235 38.2369 84.4134 41.0589 85.6371C43.8809 86.8607 46.9241 87.4921 50 87.4921C53.0759 87.4921 56.1191 86.8607 58.9411 85.6371C61.7631 84.4134 64.304 82.6235 66.4062 80.3781C68.3 78.3719 69.5719 75.5406 71.0938 71.9719C72.4875 68.7094 73.8437 64.8781 75 61.2344C78.4688 59.8594 81.25 57.0656 81.25 53.1281C81.25 50.4844 79.9062 48.2937 78.125 46.5844V43.75C78.125 34.925 76.1156 28.6437 72.5625 24.5125C69.5437 21.0125 65.5156 19.575 61.525 19.1375L59.0813 14.2625L58.2062 12.5H56.25ZM54.3938 18.9469L56.5437 23.2437C57.5844 25.325 57.9906 26.8062 58.0063 27.4406C58.025 28.0781 58.0469 27.8156 57.9125 27.9344C57.6406 28.1625 55.0063 28.8406 51.7563 29.0062C48.5063 29.175 44.6813 29.0937 41.1125 30.475C37.55 31.8562 34.4156 35.5594 34.375 40.6312H40.625C40.65 37.55 41.3656 37.1062 43.3594 36.3344C45.3531 35.5625 48.7906 35.3344 52.15 35.1625C55.5062 34.9906 58.9719 35.1937 61.9156 32.725C63.3844 31.4844 64.3219 29.35 64.2594 27.2562C64.2437 26.7937 64.1344 26.35 64.0625 25.8812C65.4947 26.495 66.7654 27.4319 67.775 28.6187C70.0406 31.25 71.875 35.8812 71.875 43.75V49.5125L73.4375 50.3875C74.3875 50.9406 75 51.9375 75 53.125C75.0182 53.9094 74.7347 54.6709 74.2079 55.2524C73.6811 55.8339 72.9512 56.191 72.1687 56.25L70.0188 56.3437L69.4344 58.3969C68.284 62.1406 66.9469 65.8244 65.4281 69.4344C64.0219 72.7344 62.4063 75.5469 61.9125 76.0719C55.2563 83.1031 44.7344 83.1031 38.0844 76.0719C37.5844 75.5469 35.975 72.7344 34.5656 69.4312C33.0505 65.8205 31.7155 62.1368 30.5656 58.3937L29.9781 56.3406L27.8281 56.2469C27.0468 56.1871 26.3182 55.8301 25.7921 55.2494C25.266 54.6687 24.9825 53.9084 25 53.125C25 51.9562 25.6031 50.9437 26.5625 50.3906L28.125 49.5156V43.75C28.125 35.3219 30.2625 29.2625 34.5719 25.1937C38.5719 21.4125 45.1031 19.2562 54.3938 18.9437V18.9469ZM40.625 50C39.7962 50 39.0013 50.3292 38.4153 50.9153C37.8292 51.5013 37.5 52.2962 37.5 53.125C37.5 53.9538 37.8292 54.7487 38.4153 55.3347C39.0013 55.9208 39.7962 56.25 40.625 56.25C41.4538 56.25 42.2487 55.9208 42.8347 55.3347C43.4208 54.7487 43.75 53.9538 43.75 53.125C43.75 52.2962 43.4208 51.5013 42.8347 50.9153C42.2487 50.3292 41.4538 50 40.625 50ZM59.375 50C58.5462 50 57.7513 50.3292 57.1653 50.9153C56.5792 51.5013 56.25 52.2962 56.25 53.125C56.25 53.9538 56.5792 54.7487 57.1653 55.3347C57.7513 55.9208 58.5462 56.25 59.375 56.25C60.2038 56.25 60.9987 55.9208 61.5847 55.3347C62.1708 54.7487 62.5 53.9538 62.5 53.125C62.5 52.2962 62.1708 51.5013 61.5847 50.9153C60.9987 50.3292 60.2038 50 59.375 50Z" fill="#333333"/>
</svg>
