<svg width="100" height="100" viewBox="0 0 100 100" fill="none" xmlns="http://www.w3.org/2000/svg">
<path d="M56.6406 12.5C46.3156 12.5 34.8156 14.2562 26.2656 23.7312C17.7281 33.2062 12.5 49.625 12.5 78.125V81.25H39.55C42.6438 83.2031 46.1219 84.375 50 84.375C53.875 84.375 57.3594 83.1781 60.45 81.25H90.625V78.125C90.625 52.7344 85.7188 37.9875 79.2969 29.3938C73.6406 21.8313 67.1344 19.725 62.3031 19.2375L59.375 14.0625L58.5 12.5H56.6406ZM54.8813 18.9469L57.4219 23.4375L58.2969 25H60.1562C63.3125 25 69.0563 26.0625 74.3125 33.1062C79.3313 39.8125 83.75 52.5937 84.1812 75H67.3844C67.7281 74.5625 68.0406 74.0875 68.3625 73.6313C72.6031 67.5781 75 60.0219 75 53.125H68.75C68.75 58.5063 66.7375 65.0844 63.2812 70.0188C59.825 74.9563 55.2031 78.125 50 78.125C44.8031 78.125 40.1781 74.9688 36.7188 70.0188C33.2594 65.075 31.25 58.4688 31.25 53.125C31.25 51.7375 31.5156 51.0406 31.9375 50.4875C32.35 49.9344 33.075 49.4562 34.1781 49.025C36.3875 48.15 40.1156 47.7906 44.0437 47.4625C47.975 47.1312 52.075 46.8187 55.7625 45.1187C59.45 43.4156 62.5 39.5625 62.5 34.375H56.25C56.25 37.6375 55.3938 38.45 53.2188 39.4531C51.05 40.4531 47.3375 40.8844 43.4563 41.2125C39.575 41.5375 35.4875 41.7219 31.8312 43.1625C30.0094 43.8813 28.2438 44.9687 26.9563 46.6812C25.6563 48.3906 25 50.6812 25 53.125C25 59.9937 27.4 67.4688 31.6406 73.5313C31.9844 74.0313 32.3437 74.525 32.7156 75H18.9375C19.3594 49.4906 24.2813 35.325 30.95 27.9281C37.475 20.6969 45.8969 19.1313 54.875 18.9469H54.8813ZM40.625 53.125C39.7962 53.125 39.0013 53.4542 38.4153 54.0403C37.8292 54.6263 37.5 55.4212 37.5 56.25C37.5 57.0788 37.8292 57.8737 38.4153 58.4597C39.0013 59.0458 39.7962 59.375 40.625 59.375C41.4538 59.375 42.2487 59.0458 42.8347 58.4597C43.4208 57.8737 43.75 57.0788 43.75 56.25C43.75 55.4212 43.4208 54.6263 42.8347 54.0403C42.2487 53.4542 41.4538 53.125 40.625 53.125ZM59.375 53.125C58.5462 53.125 57.7513 53.4542 57.1653 54.0403C56.5792 54.6263 56.25 55.4212 56.25 56.25C56.25 57.0788 56.5792 57.8737 57.1653 58.4597C57.7513 59.0458 58.5462 59.375 59.375 59.375C60.2038 59.375 60.9987 59.0458 61.5847 58.4597C62.1708 57.8737 62.5 57.0788 62.5 56.25C62.5 55.4212 62.1708 54.6263 61.5847 54.0403C60.9987 53.4542 60.2038 53.125 59.375 53.125Z" fill="#333333"/>
</svg>
