<svg width="31" height="31" viewBox="0 0 31 31" fill="none" xmlns="http://www.w3.org/2000/svg">
<path d="M25.1875 9.44531H21.0703V8.96094C21.0703 5.88516 18.5758 3.39062 15.5 3.39062C12.4242 3.39062 9.92969 5.88516 9.92969 8.96094V9.44531H5.8125C5.27666 9.44531 4.84375 9.87822 4.84375 10.4141V26.6406C4.84375 27.1765 5.27666 27.6094 5.8125 27.6094H25.1875C25.7233 27.6094 26.1562 27.1765 26.1562 26.6406V10.4141C26.1562 9.87822 25.7233 9.44531 25.1875 9.44531ZM12.1094 8.96094C12.1094 7.08701 13.6261 5.57031 15.5 5.57031C17.3739 5.57031 18.8906 7.08701 18.8906 8.96094V9.44531H12.1094V8.96094ZM23.9766 25.4297H7.02344V11.625H9.92969V14.2891C9.92969 14.4223 10.0387 14.5312 10.1719 14.5312H11.8672C12.0004 14.5312 12.1094 14.4223 12.1094 14.2891V11.625H18.8906V14.2891C18.8906 14.4223 18.9996 14.5312 19.1328 14.5312H20.8281C20.9613 14.5312 21.0703 14.4223 21.0703 14.2891V11.625H23.9766V25.4297Z" fill="#333333"/>
</svg>
